<?xml version="1.0" encoding="UTF-8"?>
<svg width="100px" height="99px" viewBox="0 0 100 99" version="1.1" xmlns="http://www.w3.org/2000/svg" xmlns:xlink="http://www.w3.org/1999/xlink">
    <title>onekey</title>
    <g id="Page-1" stroke="none" stroke-width="1" fill="none" fill-rule="evenodd">
        <g id="onekey" transform="translate(0.769231, 0.000000)" fill="#45E555">
            <path d="M49.2307692,98.4615385 C83.2175385,98.4615385 98.4615385,83.2175385 98.4615385,49.2307692 C98.4615385,15.2440308 83.2175385,0 49.2307692,0 C15.244,0 0,15.2440308 0,49.2307692 C0,83.2175385 15.244,98.4615385 49.2307692,98.4615385 Z M53.6703077,20.8763077 L39.9744615,20.8763077 L37.5718462,28.1415385 L45.1787692,28.1415385 L45.1787692,43.4453846 L53.6703077,43.4453846 L53.6703077,20.8763077 Z M64.8467692,61.9669231 C64.8467692,70.5932308 57.8538462,77.5863077 49.2275385,77.5863077 C40.6012308,77.5863077 33.6081538,70.5932308 33.6081538,61.9669231 C33.6081538,53.3406154 40.6012308,46.3476923 49.2275385,46.3476923 C57.8538462,46.3476923 64.8467692,53.3406154 64.8467692,61.9669231 Z M57.7558462,61.9669231 C57.7558462,66.6770769 53.9375385,70.4953846 49.2273846,70.4953846 C44.5173846,70.4953846 40.6990769,66.6770769 40.6990769,61.9669231 C40.6990769,57.2569231 44.5173846,53.4384615 49.2273846,53.4384615 C53.9375385,53.4384615 57.7558462,57.2569231 57.7558462,61.9669231 Z" id="Shape"></path>
        </g>
    </g>
</svg>