<?xml version="1.0" encoding="UTF-8"?>
<svg width="70px" height="88px" viewBox="0 0 70 88" version="1.1" xmlns="http://www.w3.org/2000/svg" xmlns:xlink="http://www.w3.org/1999/xlink">
    <title>Group</title>
    <g id="Page-1" stroke="none" stroke-width="1" fill="none" fill-rule="evenodd">
        <g id="tomo" transform="translate(0.797609, 0.000000)">
            <g id="Group" transform="translate(-0.000000, 0.000000)">
                <path d="M9.20239071,3.48837 C9.20239071,1.5618 10.7641907,0 12.6907607,0 L34.2023907,0 L55.7139907,0 C57.6405907,0 59.2023907,1.5618 59.2023907,3.48837 L59.2023907,46.5116 C59.2023907,48.4382 57.6405907,50 55.7139907,50 L12.6907607,50 C10.7641907,50 9.20239071,48.4382 9.20239071,46.5116 L9.20239071,3.48837 Z" id="Path" fill="#151923" fill-rule="nonzero"></path>
                <path d="M29.9098907,14.1626 C28.9127907,14.4618 27.0498907,12.8367 25.7380907,11.4531 C25.4232907,11.121 24.7988907,11.3383 24.7311907,11.7908 C24.4921907,13.3864 23.8102907,15.4399 22.2353907,16.2573 C20.6722907,17.0685 18.7029007,16.1297 17.3345207,15.1251 C16.9540707,14.8458 16.3212007,15.169 16.3439807,15.6404 C16.4251107,17.3191 16.2835507,19.478 15.3831307,20.4467 C14.4654407,21.4339 12.3786407,21.2317 10.7892507,20.8404 C10.3440607,20.7308 9.90957771,21.2426 10.0895387,21.6643 C10.6651007,23.0129 11.2377307,24.9386 10.9976907,26.5956 C10.7620307,28.2223 8.80045071,28.8361 7.04343071,29.0037 C6.54185071,29.0515 6.25334071,29.869 6.60388071,30.2309 C7.57490071,31.2334 8.44539171,32.605 8.11974071,33.9608 C7.77875071,35.3806 6.37063071,36.4087 5.10353071,37.0273 C4.66838071,37.2397 4.65458071,38.0168 5.08615071,38.2364 C6.53298071,38.9727 8.11974071,40.1737 8.11974071,41.6639 C8.11974071,43.4291 4.71265071,44.6221 2.29019071,45.1658 C1.87462071,45.2591 1.73265071,45.8135 2.04828071,46.0995 C3.41613071,47.3388 5.17328071,49.3127 5.17328071,50.8535 C5.17328071,52.3701 2.85437071,53.8723 1.00481071,54.7682 C0.592070714,54.9682 0.606090714,55.6229 1.02479071,55.81 C2.76962071,56.59 4.95728071,57.9514 5.17328071,59.5701 C5.37869071,61.1096 3.85221071,62.8717 2.46866071,64.0658 C2.10299071,64.3814 2.31831071,65.0828 2.79846071,65.1355 C4.99981071,65.377 7.77448071,66.1439 8.11974071,68.0165 C8.37309471,69.3906 7.95256071,70.6353 7.38926071,71.5763 C7.12712071,72.0141 7.57720071,72.8627 8.08652071,72.8306 C10.0374927,72.7077 12.4360407,72.9353 13.4645007,74.3006 C14.5422107,75.7312 14.7214307,77.8443 14.6361307,79.3546 C14.6111007,79.7978 15.1529007,80.1412 15.5447207,79.9326 C17.1661407,79.0692 19.5894907,78.3507 21.2074907,79.7738 C22.4853907,80.8976 23.0868907,82.3308 23.3341907,83.5022 C23.4354907,83.9818 24.2400907,84.2627 24.5909907,83.9204 C26.0146907,82.5312 28.1235907,81.1434 29.9098907,82.0036 C31.7221907,82.8764 32.9755907,84.6839 33.6449907,86.0257 C33.8367907,86.4101 34.4333907,86.4527 34.6644907,86.0905 C35.7337907,84.4139 37.5856907,82.1815 39.4344907,82.0036 C41.2551907,81.8285 43.2586907,83.2673 44.4761907,84.4308 C44.7749907,84.7164 45.3074907,84.569 45.4050907,84.1674 C45.8731907,82.2404 46.8509907,79.5284 48.2738907,79.0305 C49.5611907,78.5801 51.6899907,79.2645 53.2423907,79.9557 C53.6669907,80.1448 54.2123907,79.6812 54.1364907,79.2227 C53.9071907,77.8372 53.9840907,75.918 55.1946907,74.3006 C56.5178907,72.5328 59.0069907,72.8215 60.8312907,73.2911 C61.2809907,73.4069 61.7253907,72.8645 61.5515907,72.4339 C60.9489907,70.9402 60.4511907,68.7685 61.0190907,67.4083 C61.6162907,65.9781 64.0225907,65.3554 65.9002907,65.1388 C66.3631907,65.0854 66.5772907,64.4382 66.2376907,64.1192 C64.9661907,62.9247 63.4858907,61.1327 63.4858907,59.5701 C63.4858907,58.0133 65.4801907,56.6945 67.2015907,55.902 C67.6404907,55.7 67.6298907,54.9562 67.1882907,54.76 C65.4699907,53.9965 63.4858907,52.6516 63.4858907,50.8535 C63.4858907,49.0532 64.9515907,47.32 66.2187907,46.2223 C66.5679907,45.9198 66.4030907,45.2594 65.9507907,45.1648 C63.8460907,44.7245 61.1516907,43.6684 61.0190907,41.6639 C60.9074907,39.977 62.1141907,38.8581 63.3296907,38.2145 C63.7644907,37.9843 63.7894907,37.1667 63.3468907,36.9518 C61.8830907,36.2411 60.2554907,35.1572 60.0597907,33.9608 C59.8451907,32.6488 61.2966907,30.9475 62.5398907,29.8167 C62.8674907,29.5187 62.7040907,28.924 62.2691907,28.8406 C60.5248907,28.5061 58.1934907,27.7935 57.4558907,26.5956 C56.7309907,25.4182 57.3688907,23.4557 58.0535907,22.0695 C58.2454907,21.681 57.9034907,21.1871 57.4730907,21.2377 C55.7899907,21.4356 53.4210907,21.4319 52.2481907,20.4467 C51.2464907,19.6052 51.3181907,17.9736 51.6603907,16.5947 C51.7802907,16.1113 51.1393907,15.571 50.6861907,15.7776 C49.3004907,16.4093 47.5035907,16.8877 46.1496907,16.2573 C44.6954907,15.5801 44.0697907,13.5892 43.8502907,11.9667 C43.7865907,11.4951 43.0962907,11.2658 42.7706907,11.6129 C41.6412907,12.8167 39.9981907,14.1626 38.5436907,14.1626 C36.8905907,14.1626 35.3464907,11.8551 34.4993907,10.1395 C34.3192907,9.77475 33.7876907,9.73771 33.5690907,10.0808 C32.5629907,11.6603 30.9614907,13.847 29.9098907,14.1626 Z" id="Path" fill="#FFFFFF" fill-rule="nonzero"></path>
                <path d="M34.0002907,10.7099 C33.5128907,11.4591 32.9097907,12.3152 32.2952907,13.0475 C31.9532907,13.4549 31.5972907,13.8367 31.2464907,14.1431 C30.9079907,14.4388 30.5195907,14.7135 30.1121907,14.8358 C29.6433907,14.9765 29.1622907,14.8704 28.7648907,14.7141 C28.3542907,14.5527 27.9337907,14.2983 27.5321907,14.0098 C26.7911907,13.4775 26.0309907,12.7684 25.3924907,12.1082 C25.2578907,12.9025 25.0177907,13.8002 24.6163907,14.6238 C24.1797907,15.5197 23.5263907,16.3793 22.5593907,16.8811 C21.5590907,17.4003 20.4712907,17.3351 19.5092907,17.0451 C18.6069607,16.7731 17.7527607,16.2866 17.0542407,15.7896 C17.0856407,16.6144 17.0637607,17.5503 16.9261507,18.4197 C16.7822807,19.3287 16.4945707,20.2837 15.8982107,20.9252 C15.2448707,21.628 14.2548607,21.8373 13.3584807,21.863 C12.5060207,21.8875 11.5981407,21.7502 10.8116807,21.5683 C11.3785807,22.9464 11.9505707,24.9224 11.6935807,26.6963 C11.5317707,27.8133 10.7715307,28.5332 9.91107871,28.9727 C9.08272071,29.3959 8.08606071,29.6043 7.18428071,29.6961 C7.17803071,29.7071 7.17185071,29.7204 7.16654071,29.7353 C7.16005071,29.7535 7.15598071,29.7711 7.15399071,29.7865 C7.15391071,29.7871 7.15383071,29.7877 7.15376071,29.7883 C7.65745071,30.3154 8.15287071,30.9555 8.48500771,31.6655 C8.82816871,32.3991 9.01427571,33.2472 8.80346671,34.1249 C8.59026471,35.0126 8.05360071,35.7393 7.43661071,36.3103 C6.83713071,36.8651 6.13049071,37.3026 5.47351071,37.6287 C5.47318071,37.6323 5.47296071,37.6362 5.47290071,37.6402 C5.47287071,37.6417 5.47287071,37.6432 5.47289071,37.6446 C6.21428071,38.0279 7.01352071,38.54 7.64323071,39.1708 C8.28763771,39.8163 8.82290371,40.6575 8.82290371,41.6639 C8.82290371,42.3483 8.48936271,42.9199 8.05450071,43.3685 C7.62206071,43.8146 7.04512071,44.1879 6.43215071,44.4995 C5.30040071,45.0747 3.92048071,45.5017 2.74224071,45.7827 C3.39328071,46.3917 4.11160071,47.1495 4.69288071,47.9506 C5.32184071,48.8174 5.87644071,49.8501 5.87644071,50.8535 C5.87644071,51.9514 5.06428071,52.8894 4.23340071,53.5831 C3.43509071,54.2497 2.44733071,54.8327 1.55644071,55.28 C2.39992071,55.6738 3.33445071,56.1983 4.11447071,56.8288 C4.94942071,57.5037 5.72596071,58.3957 5.87026071,59.4771 C6.00688071,60.501 5.56401071,61.5061 4.99938071,62.3412 C4.46496071,63.1316 3.75764071,63.8642 3.08457071,64.4611 C4.17234071,64.5944 5.40486071,64.8552 6.44414071,65.3235 C7.53002071,65.8127 8.57552871,66.6105 8.81125171,67.889 C9.10135871,69.4624 8.62488471,70.8657 8.01625071,71.8975 C8.01991071,71.932 8.03469071,71.9858 8.06590071,72.043 C8.08599071,72.0798 8.10659071,72.1066 8.12284071,72.1242 C9.11630921,72.0667 10.2413107,72.0959 11.2716107,72.3208 C12.3169807,72.549 13.3660907,73.0014 14.0261807,73.8776 C15.2198807,75.4622 15.4141507,77.6939 15.3457607,79.2434 C16.1829107,78.8123 17.2286407,78.4133 18.3018407,78.2969 C19.4397907,78.1735 20.6698907,78.3646 21.6719907,79.246 C23.0761907,80.481 23.7369907,82.0433 24.0123907,83.3112 C24.0186907,83.3161 24.0269907,83.3218 24.0372907,83.3278 C24.0541907,83.3376 24.0738907,83.3466 24.0949907,83.3538 C24.1158907,83.3609 24.1353907,83.3652 24.1517907,83.3673 C24.8880907,82.6567 25.8195907,81.9253 26.8289907,81.4762 C27.8636907,81.0159 29.0676907,80.8177 30.2150907,81.3703 C32.1512907,82.3027 33.4659907,84.1548 34.1852907,85.5373 C34.7278907,84.7088 35.4490907,83.7619 36.2721907,82.9765 C37.1359907,82.1521 38.2050907,81.4158 39.3674907,81.3039 C40.4769907,81.1972 41.5800907,81.5833 42.5199907,82.099 C43.3834907,82.5729 44.1682907,83.1886 44.7836907,83.7553 C45.0251907,82.8141 45.3806907,81.7123 45.8504907,80.7537 C46.1062907,80.2318 46.4058907,79.7317 46.7542907,79.3189 C47.0996907,78.9096 47.5254907,78.5478 48.0419907,78.367 C48.8770907,78.0748 49.8918907,78.1702 50.8144907,78.3795 C51.7237907,78.5857 52.6505907,78.9282 53.4324907,79.2711 C53.1984907,77.7818 53.2851907,75.6789 54.6321907,73.8793 C55.4490907,72.788 56.6166907,72.3583 57.7631907,72.2566 C58.8340907,72.1616 59.9370907,72.3457 60.8499907,72.5709 C60.5514907,71.8061 60.2818907,70.8859 60.1507907,69.9706 C60.0148907,69.0212 60.0150907,67.9892 60.3706907,67.1375 C60.7815907,66.1535 61.7589907,65.5467 62.7204907,65.1651 C63.6317907,64.8034 64.6688907,64.5885 65.5863907,64.4692 C64.9736907,63.8766 64.3202907,63.1515 63.8005907,62.3729 C63.2421907,61.5363 62.7832907,60.5567 62.7832907,59.5701 C62.7832907,58.485 63.4705907,57.5886 64.2360907,56.92 C64.9754907,56.2742 65.9028907,55.7386 66.7544907,55.3351 C65.8959907,54.9409 64.9608907,54.3989 64.2160907,53.7111 C63.4321907,52.9872 62.7832907,52.0279 62.7832907,50.8535 C62.7832907,49.7654 63.2235907,48.7469 63.7906907,47.8873 C64.3216907,47.0823 64.9927907,46.3723 65.6205907,45.8125 C64.5717907,45.5792 63.3727907,45.1945 62.3850907,44.6043 C61.3503907,43.986 60.4066907,43.0516 60.3179907,41.7102 C60.1800907,39.6258 61.6676907,38.3111 62.9568907,37.6168 C62.9576907,37.6142 62.9584907,37.6114 62.9591907,37.6083 C62.9623907,37.5948 62.9644907,37.5792 62.9647907,37.5631 C62.9648907,37.5575 62.9647907,37.5521 62.9644907,37.5471 C62.2262907,37.1837 61.4310907,36.7198 60.7793907,36.1795 C60.1267907,35.6384 59.5061907,34.9291 59.3662907,34.0742 C59.2137907,33.1417 59.6554907,32.1938 60.1701907,31.4285 C60.6510907,30.7135 61.2803907,30.034 61.8712907,29.4779 C61.0314907,29.3044 60.0762907,29.0473 59.2163907,28.6913 C58.2951907,28.3099 57.3486907,27.7616 56.8575907,26.9641 C56.3583907,26.1533 56.3691907,25.1547 56.5358907,24.2793 C56.6907907,23.4658 57.0010907,22.6484 57.3255907,21.9612 C56.4980907,22.0464 55.5258907,22.0822 54.5963907,21.9849 C53.6006907,21.8807 52.5445907,21.6133 51.7963907,20.9848 C51.1053907,20.4044 50.8255907,19.5824 50.7507907,18.7881 C50.6783907,18.0188 50.7896907,17.2075 50.9622907,16.4914 C50.9596907,16.4883 50.9567907,16.485 50.9535907,16.4817 C50.9482907,16.4762 50.9424907,16.4707 50.9361907,16.4655 C50.9299907,16.4603 50.9236907,16.4555 50.9173907,16.4513 C50.9152907,16.4499 50.9132907,16.4486 50.9112907,16.4473 C50.1948907,16.7686 49.3604907,17.0573 48.5113907,17.1857 C47.6397907,17.3176 46.6990907,17.2883 45.8532907,16.8944 C44.9183907,16.4591 44.3028907,15.6283 43.8999907,14.7632 C43.5177907,13.9424 43.2957907,13.026 43.1748907,12.2084 C42.6065907,12.8019 41.9133907,13.4302 41.1680907,13.9248 C40.3876907,14.4427 39.4735907,14.8655 38.5439907,14.8655 C37.3994907,14.8655 36.4208907,14.0846 35.6925907,13.2595 C35.0100907,12.4864 34.4296907,11.541 34.0002907,10.7099 Z M32.9764907,9.70316 C33.5007907,8.88015 34.7167907,8.99146 35.1299907,9.82829 C35.5381907,10.6551 36.1039907,11.6013 36.7464907,12.3292 C37.4152907,13.0868 38.0353907,13.4596 38.5439907,13.4596 C39.0687907,13.4596 39.7035907,13.2095 40.3906907,12.7535 C41.0646907,12.3062 41.7164907,11.7094 42.2582907,11.1319 L42.7709907,11.6128 L42.2582907,11.1319 C42.6601907,10.7036 43.2287907,10.6833 43.6288907,10.8151 C44.0287907,10.9469 44.4694907,11.2983 44.5470907,11.8724 C44.6510907,12.6414 44.8484907,13.4699 45.1743907,14.1697 C45.5027907,14.8749 45.9272907,15.3782 46.4466907,15.62 C46.9547907,15.8566 47.5893907,15.9034 48.3011907,15.7957 C49.0088907,15.6886 49.7401907,15.4364 50.3948907,15.138 C50.9600907,14.8803 51.5216907,15.1212 51.8406907,15.3893 C52.1599907,15.6576 52.4910907,16.1665 52.3427907,16.764 C52.1822907,17.4108 52.0959907,18.0784 52.1503907,18.6563 C52.2046907,19.2328 52.3898907,19.6474 52.7005907,19.9084 L52.2484907,20.4466 L52.7005907,19.9084 C53.1251907,20.2651 53.8399907,20.4922 54.7426907,20.5867 C55.6240907,20.679 56.5819907,20.6347 57.3912907,20.5396 C57.9108907,20.4785 58.3394907,20.7505 58.5738907,21.0874 C58.8079907,21.4238 58.9131907,21.9168 58.6839907,22.3808 C58.3578907,23.041 58.0552907,23.8154 57.9168907,24.5423 C57.7746907,25.2891 57.8289907,25.8605 58.0546907,26.227 C58.3012907,26.6274 58.8891907,27.0344 59.7540907,27.3924 C60.5881907,27.7377 61.5570907,27.9883 62.4017907,28.1502 C62.9292907,28.2514 63.2565907,28.6569 63.3682907,29.0609 C63.4797907,29.4643 63.4074907,29.9779 63.0130907,30.3366 C62.4145907,30.8811 61.7850907,31.5464 61.3366907,32.213 C60.8684907,32.9091 60.6916907,33.4679 60.7536907,33.8473 C60.8095907,34.1889 61.1005907,34.6196 61.6766907,35.0973 C62.2313907,35.5572 62.9495907,35.9774 63.6540907,36.3194 C64.2152907,36.5919 64.3786907,37.1785 64.3702907,37.5916 C64.3618907,38.007 64.1780907,38.5607 63.6587907,38.8357 C62.5268907,39.435 61.6369907,40.3519 61.7206907,41.6175 C61.7645907,42.2807 62.2343907,42.8765 63.1061907,43.3975 C63.9658907,43.9112 65.0813907,44.2647 66.0949907,44.4768 C66.6476907,44.5924 66.9647907,45.0375 67.0671907,45.4438 C67.1694907,45.8497 67.1012907,46.388 66.6791907,46.7536 C66.0780907,47.2743 65.4434907,47.9348 64.9640907,48.6614 C64.4815907,49.3929 64.1890907,50.1412 64.1890907,50.8535 C64.1890907,51.4771 64.5321907,52.0894 65.1698907,52.6783 C65.8034907,53.2634 66.6535907,53.7531 67.4739907,54.1176 C68.0151907,54.358 68.2228907,54.8947 68.2283956,55.3199 C68.2335907,55.7452 68.0386907,56.2905 67.4957907,56.5405 C66.6667907,56.9221 65.8042907,57.4168 65.1608907,57.9788 C64.4988907,58.5569 64.1890907,59.0984 64.1890907,59.5701 C64.1890907,60.1461 64.4701907,60.8438 64.9698907,61.5924 C65.4596907,62.3264 66.1076907,63.0323 66.7191907,63.6068 C67.1336907,63.9962 67.1709907,64.5459 67.0374907,64.9494 C66.9039907,65.3529 66.5461907,65.7719 65.9810907,65.8371 C65.0754907,65.9415 64.0712907,66.1415 63.2390907,66.4718 C62.3786907,66.8132 61.8542907,67.233 61.6679907,67.6792 C61.4556907,68.1876 61.4207907,68.9215 61.5423907,69.7714 C61.6616907,70.6045 61.9191907,71.4656 62.2036907,72.1708 C62.4115907,72.6861 62.2309907,73.1983 61.9657907,73.5169 C61.7001907,73.8362 61.2168907,74.1161 60.6562907,73.9718 C59.7737907,73.7446 58.7858907,73.5772 57.8873907,73.6569 C57.0024907,73.7354 56.2639907,74.0453 55.7576907,74.7217 C54.7034907,76.1302 54.6185907,77.8297 54.8301907,79.1079 C54.9196907,79.6487 54.6415907,80.1108 54.3266907,80.3725 C54.0117907,80.6344 53.4875907,80.8342 52.9567907,80.5978 C52.2057907,80.2634 51.3310907,79.9381 50.5035907,79.7505 C49.6517907,79.5573 48.9584907,79.5357 48.5062907,79.694 C48.3113907,79.7622 48.0813907,79.9261 47.8285907,80.2256 C47.5787907,80.5215 47.3378907,80.9132 47.1128907,81.3724 C46.6625907,82.2911 46.3156907,83.3974 46.0883907,84.3333 C45.8581907,85.2806 44.6661907,85.5844 43.9907907,84.939 C43.4118907,84.3857 42.6555907,83.777 41.8436907,83.3314 C41.0221907,82.8807 40.2131907,82.6349 39.5020907,82.7033 C38.8155907,82.7693 38.0342907,83.2381 37.2426907,83.9935 C36.4688907,84.7319 35.7730907,85.6597 35.2573907,86.4684 C34.9771907,86.9077 34.4983907,87.0663 34.0936907,87.0394 C33.6900907,87.0126 33.2434907,86.7948 33.0162907,86.3394 C32.3744907,85.053 31.2109907,83.4103 29.6051907,82.6369 C28.9663907,82.3293 28.2226907,82.3948 27.4003907,82.7606 C26.5765907,83.1272 25.7617907,83.7603 25.0820907,84.4234 C24.6385907,84.8562 24.0266907,84.8151 23.6434907,84.6851 C23.2569907,84.554 22.7681907,84.2227 22.6466907,83.6474 C22.4214907,82.5806 21.8780907,81.2994 20.7435907,80.3016 C20.1275907,79.7599 19.3369907,79.5987 18.4534507,79.6945 C17.5619207,79.7912 16.6390807,80.1463 15.8753507,80.5529 C15.4066507,80.8025 14.9006607,80.6993 14.5574907,80.4813 C14.2141807,80.2633 13.9045007,79.8479 13.9346007,79.315 C14.0175107,77.8469 13.8257307,75.9479 12.9033207,74.7235 C12.5349507,74.2345 11.8705507,73.8904 10.9717907,73.6942 C10.0858177,73.5008 9.06909371,73.473 8.13098071,73.5321 C7.46866071,73.5739 7.02557071,73.0715 6.83180071,72.7163 C6.63394071,72.3536 6.47055071,71.7428 6.78643071,71.2152 C7.29318071,70.3687 7.64159071,69.2983 7.42874071,68.1439 C7.31920071,67.5498 6.80475071,67.0279 5.86663071,66.6052 C4.94915071,66.1918 3.78671071,65.951 2.72206071,65.8342 C2.12907071,65.7691 1.77103071,65.316 1.64482071,64.906 C1.51866071,64.4961 1.55997071,63.9217 2.00967071,63.5336 C2.67486071,62.9595 3.35302071,62.2663 3.83479071,61.5537 C4.32794071,60.8244 4.54560071,60.1787 4.47680071,59.6631 C4.40511071,59.1258 3.97982071,58.5276 3.23074071,57.9221 C2.50297071,57.3339 1.57920071,56.8276 0.738190714,56.4517 C0.230940714,56.2249 0.0090307137,55.7334 0.000242844483,55.308 C-0.0080392863,54.8821 0.194940714,54.3796 0.698620714,54.1356 C1.59703071,53.7004 2.58281071,53.1299 3.33237071,52.504 C4.12333071,51.8436 4.47063071,51.2722 4.47063071,50.8535 C4.47063071,50.3161 4.14665071,49.5915 3.55507071,48.7762 C2.98271071,47.9875 2.23875071,47.2203 1.57658071,46.6203 C0.846650714,45.959 1.15476071,44.7003 2.13652071,44.4799 C3.32093071,44.2141 4.71461071,43.7955 5.79514071,43.2463 C6.33675071,42.971 6.76299071,42.6811 7.04508071,42.39 C7.32475071,42.1015 7.41709071,41.862 7.41709071,41.6639 C7.41709071,41.18 7.15898071,40.6756 6.64830071,40.164 C6.14212071,39.6569 5.45428071,39.2123 4.76761071,38.8628 C4.23428071,38.5914 4.06073071,38.034 4.06726071,37.6181 C4.07379071,37.202 4.26393071,36.6551 4.79541071,36.3956 L5.10379071,37.0273 L4.79541071,36.3956 C5.38838071,36.1061 5.99385071,35.7301 6.48175071,35.2786 C6.97084071,34.8259 7.30874071,34.3287 7.43653071,33.7966 C7.55137071,33.3185 7.46505071,32.8029 7.21163071,32.2611 C6.95700071,31.7168 6.55130071,31.1866 6.09924071,30.7199 C5.66635071,30.273 5.70220071,29.6568 5.84219071,29.2637 C5.98185071,28.8715 6.34677071,28.364 6.97693071,28.3039 C7.81303071,28.2242 8.64364771,28.0416 9.27157021,27.7208 C9.89008471,27.4049 10.2284607,27.0045 10.3023007,26.4948 C10.5139907,25.0335 10.0045457,23.2553 9.44330071,21.9402 C9.22466091,21.4279 9.39903871,20.9166 9.66941771,20.5981 C9.93981371,20.2797 10.4163007,20.0246 10.9575207,20.1578 C11.7189507,20.3453 12.5701107,20.4793 13.3181907,20.4578 C14.0919707,20.4356 14.6042107,20.2524 14.8685507,19.9681 C15.1726207,19.641 15.4059007,19.0322 15.5376307,18.1999 C15.6653407,17.393 15.6813507,16.4854 15.6421507,15.6743 C15.6139507,15.0907 15.9907807,14.6704 16.3657007,14.4767 C16.7400107,14.2834 17.2914407,14.2213 17.7507407,14.5585 C18.3970407,15.0329 19.1590807,15.4712 19.9150907,15.6991 C20.6705907,15.9269 21.3490907,15.9254 21.9117907,15.6334 C22.5198907,15.3178 22.9948907,14.742 23.3526907,14.0079 C23.7092907,13.2762 23.9236907,12.4381 24.0362907,11.6866 C24.1170907,11.1471 24.5183907,10.7974 24.9158907,10.6622 C25.3149907,10.5265 25.8591907,10.5589 26.2483907,10.9694 C26.8902907,11.6464 27.6492907,12.363 28.3522907,12.868 C28.7049907,13.1213 29.0191907,13.3036 29.2793907,13.4059 C29.5526907,13.5134 29.6782907,13.4982 29.7080907,13.4893 C29.8264907,13.4538 30.0326907,13.3368 30.3216907,13.0844 C30.5982907,12.8427 30.9026907,12.5199 31.2183907,12.1438 C31.8490907,11.3923 32.4825907,10.4786 32.9764907,9.70317 L33.5693907,10.0808 L33.5727907,10.083 M32.9764907,9.70316 L33.5693907,10.0808 L32.9764907,9.70316 Z" id="Shape" fill="#151923"></path>
                <path d="M47.0267907,23.3614 L47.0267907,24.8107 L48.6578907,24.8107 L48.6578907,22.8448 C48.6578907,21.8857 47.6579907,21.2543 46.7920907,21.6667 L43.6544907,23.1608 L44.3557907,24.6334 L47.0267907,23.3614 Z M45.1290907,35.0021 C45.3026907,36.3922 44.6238907,37.6214 43.6129907,37.7476 C42.6019907,37.8739 41.6416907,36.8493 41.4681907,35.4593 C41.2945907,34.0692 41.9733907,32.84 42.9842907,32.7138 C43.9952907,32.5875 44.9554907,33.6121 45.1290907,35.0021 Z M28.6602907,35.4776 C28.7482907,36.8757 27.9953907,38.061 26.9785907,38.125 C25.9617907,38.189 25.0661907,37.1075 24.9781907,35.7094 C24.8901907,34.3113 25.6430907,33.1261 26.6598907,33.0621 C27.6766907,32.9981 28.5722907,34.0796 28.6602907,35.4776 Z M35.6964907,37.431 C36.2637907,37.4094 36.7267907,37.5613 37.0147907,37.7544 C37.3042907,37.9486 37.3326907,38.1113 37.3343907,38.1561 C37.3361907,38.201 37.3200907,38.3654 37.0462907,38.581 C36.7736907,38.7955 36.3235907,38.9821 35.7562907,39.0036 C35.1889907,39.0252 34.7260907,38.8733 34.4379907,38.6802 C34.1485907,38.486 34.1200907,38.3234 34.1183907,38.2785 C34.1166907,38.2336 34.1326907,38.0692 34.4065907,37.8537 C34.6790907,37.6391 35.1291907,37.4525 35.6964907,37.431 Z M35.6430907,36.0262 C37.3069907,35.9629 38.6931907,36.8926 38.7391907,38.1027 C38.7724907,38.9781 38.0954907,39.7604 37.0884907,40.1502 C37.1315907,40.3517 37.2022907,40.6013 37.3083907,40.8666 C37.5080907,41.366 37.7897907,41.8107 38.1269907,42.0676 C38.4808907,42.3373 38.9426907,42.2979 39.6018907,41.8914 C40.1202907,41.5717 40.5686907,41.1402 40.9038907,40.8178 L40.9040907,40.8175 L40.9046907,40.817 L40.9052907,40.8164 C40.9871907,40.7375 41.0623907,40.6653 41.1300907,40.6027 C41.4152907,40.3394 41.8599907,40.3572 42.1232907,40.6425 C42.3865907,40.9277 42.3688907,41.3724 42.0835907,41.6357 C42.0422907,41.6739 41.9886907,41.7258 41.9242907,41.7881 L41.9239907,41.7883 L41.9236907,41.7887 C41.5999907,42.102 41.0054907,42.6775 40.3397907,43.088 C39.5542907,43.5723 38.3600907,44.0126 37.2750907,43.1858 C36.7773907,42.8067 36.4197907,42.2782 36.1708907,41.7679 C36.0039907,42.2721 35.7497907,42.8126 35.3655907,43.2791 C34.6620907,44.1333 33.5481907,44.2598 32.6968907,44.174 C32.2515907,44.1291 31.8215907,44.0226 31.4551907,43.8858 C31.1028907,43.7544 30.7529907,43.5739 30.5089907,43.3487 C30.2237907,43.0854 30.2059907,42.6407 30.4692907,42.3555 C30.7325907,42.0702 31.1772907,42.0524 31.4624907,42.3158 C31.5154907,42.3647 31.6737907,42.4669 31.9467907,42.5688 C32.2056907,42.6654 32.5179907,42.7431 32.8377907,42.7753 C33.5168907,42.8437 34.0245907,42.6961 34.2803907,42.3854 C34.5791907,42.0226 34.7835907,41.5485 34.9119907,41.0743 C34.9818907,40.816 35.0253907,40.572 35.0504907,40.3675 C33.7434907,40.1728 32.7523907,39.352 32.7135907,38.3319 C32.6675907,37.1218 33.9791907,36.0895 35.6430907,36.0262 Z M23.3964907,25.6616 L20.8866907,24.2746 L20.8866907,27.3461 L19.2555907,27.3461 L19.2555907,23.7216 C19.2555907,22.728 20.3218907,22.0989 21.1915907,22.5795 L24.1853907,24.234 L23.3964907,25.6616 Z" id="Shape" fill="#151923"></path>
            </g>
        </g>
    </g>
</svg>